<svg xmlns="http://www.w3.org/2000/svg" xmlns:xlink="http://www.w3.org/1999/xlink" viewBox="0,0,256,256" width="30px" height="30px" fill-rule="nonzero"><g fill-opacity="0.38039" fill="#000000" fill-rule="nonzero" stroke="none" stroke-width="1" stroke-linecap="butt" stroke-linejoin="miter" stroke-miterlimit="10" stroke-dasharray="" stroke-dashoffset="0" font-family="none" font-weight="none" font-size="none" text-anchor="none" style="mix-blend-mode: normal"><g transform="scale(8.53333,8.53333)"><path d="M20.05664,3.00195c-0.10662,0.006 -0.21233,0.04237 -0.29883,0.10938l-4.77539,3.69531l7.53711,4.14844l4.27344,-3.26953c0.27,-0.206 0.24517,-0.59939 -0.04883,-0.77539l-6.37891,-3.83398c-0.094,-0.057 -0.20197,-0.08022 -0.30859,-0.07422zM22.51953,10.95508l-7.53711,4.49609l4.57031,3.3457c0.346,0.253 0.82436,0.27278 1.19336,0.05078l6.01758,-3.625c0.288,-0.173 0.31659,-0.55758 0.05859,-0.76758zM10.15234,3.00781c-0.10912,-0.007 -0.21991,0.01912 -0.31641,0.07813l-6.60352,4.03906c-0.298,0.182 -0.3123,0.5822 -0.0293,0.7832l4.60938,3.27734l-4.60547,3.27539c-0.284,0.203 -0.2668,0.60516 0.0332,0.78516l5.97656,3.59961c0.369,0.222 0.84736,0.20222 1.19336,-0.05078l4.57031,-3.34375l-7.16406,-4.26562l7.16406,-4.37891l-4.52539,-3.67969c-0.087,-0.071 -0.19361,-0.11214 -0.30273,-0.11914zM14.98242,17.92969l-3.39062,2.48047c-0.521,0.38 -1.16641,0.58984 -1.81641,0.58984c-0.562,0 -1.1128,-0.15145 -1.5918,-0.43945l-1.18359,-0.71484v1.48633c0,0.334 0.16731,0.64603 0.44531,0.83203l7,4.66797c0.168,0.112 0.36169,0.16797 0.55469,0.16797c0.189,0 0.37892,-0.05316 0.54492,-0.16016l7,-4.55078c0.284,-0.185 0.45508,-0.50084 0.45508,-0.83984v-1.625l-1.2207,0.73633c-0.478,0.288 -1.02784,0.43945 -1.58984,0.43945c-0.651,0 -1.29641,-0.20984 -1.81641,-0.58984z"></path></g></g></svg>