<svg xmlns="http://www.w3.org/2000/svg" xmlns:xlink="http://www.w3.org/1999/xlink" viewBox="0,0,256,256" width="48px" height="48px"><g fill-opacity="0" fill="#000000" fill-rule="nonzero" stroke="none" stroke-width="1" stroke-linecap="butt" stroke-linejoin="miter" stroke-miterlimit="10" stroke-dasharray="" stroke-dashoffset="0" font-family="none" font-weight="none" font-size="none" text-anchor="none" style="mix-blend-mode: normal"><g transform="scale(5.33333,5.33333)"><path d="M24,4c-11.02793,0 -20,8.97207 -20,20c0,11.02793 8.97207,20 20,20c11.02793,0 20,-8.97207 20,-20c0,-11.02793 -8.97207,-20 -20,-20zM24,7c9.40662,0 17,7.59339 17,17c0,9.40661 -7.59338,17 -17,17c-9.40661,0 -17,-7.59339 -17,-17c0,-9.40661 7.59339,-17 17,-17zM18.5,15.49805c-4.71665,0 -8.56333,3.89184 -8.49805,8.62109c0.06361,4.5481 3.83186,8.31529 8.37891,8.37891c4.25582,0.05924 7.83527,-3.03602 8.50586,-7.10937c0.25056,-1.52105 -0.97429,-2.88867 -2.47656,-2.88867h-4.91016c-0.54095,-0.00765 -1.04412,0.27656 -1.31683,0.74381c-0.27271,0.46725 -0.27271,1.04514 0,1.51238c0.27271,0.46725 0.77588,0.75146 1.31683,0.74381h4.21484c-0.66774,2.31478 -2.7361,4.03559 -5.29297,4c-2.88695,-0.04039 -5.38148,-2.53398 -5.42187,-5.42187c-0.04272,-3.09475 2.41865,-5.58008 5.5,-5.58008c1.15836,0 2.21821,0.35304 3.10352,0.95898c0.44179,0.3166 1.02027,0.36947 1.51213,0.13821c0.49186,-0.23126 0.82017,-0.71048 0.85818,-1.25267c0.03801,-0.54219 -0.22021,-1.06253 -0.675,-1.36015c-1.36469,-0.93406 -3.02519,-1.48437 -4.79883,-1.48437zM33.47656,19.47852c-0.82766,0.01293 -1.48843,0.69381 -1.47656,1.52148v1.5h-1.5c-0.54095,-0.00765 -1.04412,0.27656 -1.31683,0.74381c-0.27271,0.46725 -0.27271,1.04514 0,1.51238c0.27271,0.46725 0.77588,0.75146 1.31683,0.74381h1.5v1.5c-0.00765,0.54095 0.27656,1.04412 0.74381,1.31683c0.46725,0.27271 1.04514,0.27271 1.51238,0c0.46725,-0.27271 0.75146,-0.77588 0.74381,-1.31683v-1.5h1.5c0.54095,0.00765 1.04412,-0.27656 1.31683,-0.74381c0.27271,-0.46725 0.27271,-1.04514 0,-1.51238c-0.27271,-0.46725 -0.77588,-0.75146 -1.31683,-0.74381h-1.5v-1.5c0.00582,-0.40562 -0.15288,-0.7963 -0.43991,-1.08296c-0.28703,-0.28666 -0.67792,-0.44486 -1.08353,-0.43852z"></path></g></g></svg>